PathFileType	4	(X/Y/Z)	64_2_70_p1_0-174_filt_butterworth.trc
DataRate	CameraRate	NumFrames	NumMarkers	Units	OrigDataRate	OrigDataStartFrame	OrigNumFrames
60.0	60.0	6	27	m	60.0	21	174
Frame#	Time	RHip			RKnee			RAnkle			RBigToe			RSmallToe			RHeel			LHip			LKnee			LAnkle			LBigToe			LSmallToe			LHeel			Neck			Head			Nose			RShoulder			RElbow			RWrist			RThumb			RIndex			RPinky			LShoulder			LElbow			LWrist			LThumb			LIndex			LPinky			
		X1	Y1	Z1	X2	Y2	Z2	X3	Y3	Z3	X4	Y4	Z4	X5	Y5	Z5	X6	Y6	Z6	X7	Y7	Z7	X8	Y8	Z8	X9	Y9	Z9	X10	Y10	Z10	X11	Y11	Z11	X12	Y12	Z12	X13	Y13	Z13	X14	Y14	Z14	X15	Y15	Z15	X16	Y16	Z16	X17	Y17	Z17	X18	Y18	Z18	X19	Y19	Z19	X20	Y20	Z20	X21	Y21	Z21	X22	Y22	Z22	X23	Y23	Z23	X24	Y24	Z24	X25	Y25	Z25	X26	Y26	Z26	X27	Y27	Z27	
21	0.35	0.33881758605404344	0.33389973626599184	1.0050173113040604	0.3007546428243526	-0.11421019005116778	1.0734213841083715	0.2886844152513408	-0.5499948974665878	1.096212162180693	0.28409677604621175	-0.5994707070157003	0.8934639492357387	0.3631719033956704	-0.5903694462299717	0.920216907834161	0.22417028777060272	-0.6347547701390718	1.1923649694275196	0.1123779532457001	0.3288989384981289	0.9617999675784881	0.07280893642432607	-0.10855593641303263	1.0088631148544702	0.05161079939021553	-0.5271815131228215	1.0259913430893808	0.12606810419408912	-0.5816652024790698	0.8585492966003506	0.046828184587510834	-0.5976196310149365	0.8971233960689585	0.0465112058115346	-0.5902963743819357	1.1059378645607698	0.2693334924812646	0.9454910479598899	0.9407371825635371	0.30152968264835533	1.1983215741247546	0.8969467210770126	0.30532986134923357	1.0553771874711195	0.8419983692723769	0.4152417370968332	0.8314678243842919	1.043338675334011	0.44167392510588643	0.5453050618959221	1.0255475705590025	0.3811554017602808	0.31606006742982107	0.8624683915899322	0.25417871954201426	0.2603320825024866	0.8029030129583906	0.2549310141675179	0.23426124695343448	0.8018641136159137	0.2862685977048155	0.201561020572263	0.874392127648922	0.09956244577668161	0.8553593193749037	0.91658685896068	0.03777073059219421	0.5489124092652209	0.8772067924497768	0.18562824827833585	0.35472269583704735	0.7864251192500886	0.2792204242979727	0.2751163669293255	0.801741145008072	0.2795109049444796	0.24103891260862242	0.802428348340257	0.2556233665843143	0.22766431221186084	0.8060829430688983	
22	0.3666666666666666	0.33887012131431066	0.3341223745033976	1.0051892716845343	0.3017868137075504	-0.11487650479631312	1.0722492149940008	0.28800803877241105	-0.5499458070917875	1.096195272197	0.28457464406883515	-0.5982523731150473	0.8913099767600513	0.3631555462363551	-0.5905718266688416	0.9200568308672379	0.22393382721845154	-0.6342918906820939	1.1919205984456334	0.11224571967763097	0.32981596224980364	0.9609376310033129	0.07306898965194272	-0.10930055325547328	1.009087564951073	0.051873781089939265	-0.5269701743701121	1.0261478512922355	0.12631965244105364	-0.5804667914187596	0.8564884104538377	0.04682594295051226	-0.5975043915194613	0.8970615775479559	0.046821358453907176	-0.5900814330617734	1.1064668855525774	0.26931758708693027	0.945893504081191	0.9415050310696463	0.301520774350432	1.1983090793101525	0.8969094156782284	0.3053319103873581	1.0553597544655404	0.8417351042165631	0.41526679425953705	0.8306544062707147	1.043232450606093	0.44259513432724806	0.5443468968056907	1.0242211777471857	0.38234787227358413	0.31284396451107893	0.8674367930005171	0.2583143023695651	0.2562646927359974	0.7995117420644101	0.25742531530219415	0.22585967841516136	0.8028519863251632	0.2856027213706087	0.19573792599404322	0.8814186813277529	0.09963208476099637	0.8553235936662993	0.9165686922824327	0.03587635674013505	0.5501061978989292	0.8797205404146891	0.1814887155000594	0.3512565309065487	0.7806594339072677	0.2766019439306143	0.2748723186578872	0.7957508128673907	0.27707667027279453	0.2367416511515028	0.7953046476217095	0.24892207937256133	0.21663933118633283	0.8122604429526017	
23	0.3833333333333333	0.3388799085919946	0.3342186012766815	1.0056284891301448	0.30258235669326344	-0.11575188534359698	1.071045493599066	0.28724714227056247	-0.5497452249762225	1.0961309717582703	0.2853927871441471	-0.5967714545688522	0.8887714560572318	0.3628910083771787	-0.5904640214375941	0.9199290879502513	0.22377562158701966	-0.6337378890782878	1.19154515276758	0.11187565857522874	0.33057553305841364	0.9602187264137743	0.07337321910713045	-0.11020202426535436	1.0093336212531532	0.05206337211905838	-0.5267105576537056	1.0261877087749478	0.12666020632770053	-0.5788763567991447	0.8538564346129068	0.04685529845011338	-0.5972902343967159	0.8969224692519387	0.04701267967909413	-0.5898823540575591	1.1069989470936277	0.269306588869922	0.9462668630620379	0.9425183738766467	0.301508884778101	1.1985408814073577	0.8969035973478153	0.3053255681146956	1.055267964609119	0.8417956804509736	0.4152408517355919	0.829940394690152	1.0431969074126335	0.4436321090016476	0.5432378007305101	1.0228074737735418	0.3837886926919374	0.30965835500308875	0.8727776029786731	0.26526609562533693	0.25089434304787633	0.7936304534756862	0.2632727306704011	0.21612135550831763	0.8029695380005051	0.28780585906540174	0.19007265024487974	0.8853513838818536	0.0997036273064136	0.8552796854398645	0.9165457792581143	0.03389824157323414	0.551344011776248	0.8830251860627262	0.1778798379487647	0.34597624426828383	0.7746775728864017	0.27403627355814236	0.2731312523688543	0.787585014946883	0.27376797958819643	0.2300398190883468	0.7869784383678009	0.23757587866865693	0.2044317611989273	0.8176043580705481	
24	0.4	0.338803543086481	0.3341908146965894	1.0062405029567774	0.30321134621144585	-0.11676077243903787	1.0698192822919965	0.28645565175322935	-0.5494965208644607	1.0961816145335916	0.28645574804743357	-0.5954651301340673	0.8866446875658672	0.3623030806252353	-0.590115806354941	0.9197886540537433	0.22369485249951868	-0.633136099607188	1.1913249509421975	0.11122093620222002	0.33124692160623737	0.9596996163051842	0.07363787391553585	-0.1112472835364458	1.0095819145834266	0.05217439427544865	-0.5265612992406872	1.0261657186949429	0.1269938672894334	-0.5770870413577961	0.850967972179241	0.046903659060647515	-0.5970370389025237	0.8967201805357731	0.047064995068967296	-0.5897757652631755	1.1075153521102816	0.2693068061424	0.9466650969280146	0.9434116860143444	0.30149399941957017	1.1991293054825247	0.8969378312948334	0.3053262498749531	1.055102639366578	0.8417779180892208	0.4152160253908789	0.8294921120026124	1.0432856550190075	0.4442287443919023	0.5420819473588752	1.0221556387251822	0.3856829999466369	0.3065950530735438	0.8778696471025389	0.27554129552845485	0.24462894381798905	0.7854898776133175	0.2731910512600264	0.20648496968469304	0.8007702879078638	0.29405312452942567	0.18459904146868933	0.88590970610116	0.09976886757367345	0.8552289457390737	0.9165253902083106	0.032063332998023164	0.5524626643968901	0.8866968783349136	0.17473828202321734	0.33935033142653603	0.7693119509275681	0.27098223416316497	0.26967578677480586	0.7769999291321623	0.26846672594815146	0.22174852852689902	0.7776937941446682	0.22283299153677344	0.19317850228770472	0.8191607917536978	
25	0.4166666666666667	0.3386362910447059	0.3340918716942575	1.0066978075467705	0.30370615561476816	-0.11782964126827256	1.0685783584003588	0.2856529802102635	-0.5493579012177263	1.096548148903196	0.28752942093883294	-0.594740462232092	0.8856197759391946	0.36149005009229707	-0.589614814683702	0.9196598754144826	0.22364481658034915	-0.6325368822272877	1.1912002667955643	0.11042006322762632	0.33195482477202337	0.9591671859138321	0.07374034721121663	-0.11236134697803518	1.0098452493892323	0.05227221581449272	-0.526692482067419	1.026191467113855	0.12717363615669175	-0.5753327495017891	0.8481605641007705	0.046954386771972736	-0.5968179880739658	0.8965102198918335	0.047021578140403385	-0.5898566435298987	1.1080028805159692	0.26932492913007566	0.9471845084405994	0.9439172429151013	0.3014721757114863	1.2000877086647077	0.8970112330425637	0.3053318116459214	1.0549886898151573	0.8416815366190988	0.4153105301245815	0.8294170303296371	1.0435154441130239	0.44425955517967786	0.541139604375807	1.0224014457604487	0.3881907012240982	0.3036234102128233	0.8822081574845212	0.2885358124545535	0.2379452164674346	0.7762031737191151	0.2865847819570899	0.19819337903444756	0.7961501793624168	0.3045753294670576	0.17957476186603516	0.8833735352388047	0.0998159263901305	0.8551727319444219	0.9165575898573006	0.030371334372691967	0.5533919916735556	0.8901181876634539	0.171168791507184	0.33211120622283463	0.7657804305292402	0.26593101239253547	0.26478929726190703	0.7650341568976735	0.26000159391214017	0.2130798223360057	0.7684188292475109	0.2068184427106986	0.18450035865168218	0.8158808420185144	
26	0.4333333333333333	0.33840040730768733	0.3339672973189863	1.0066882366949121	0.30404716335640314	-0.11892557227133344	1.0673415499169332	0.2848197033883571	-0.5494592496928863	1.0973581450469776	0.28831575507024965	-0.5948006241132728	0.8859807417808171	0.3605981989749272	-0.5890149953277488	0.9196075812057398	0.22358012187354828	-0.6320308213031005	1.191102248149884	0.10972018205894894	0.3327411957471456	0.9582511099632727	0.07359160919520105	-0.11350736457061428	1.010144259175228	0.05244159296799611	-0.527172222373728	1.0263450278325188	0.1270781668656572	-0.5739453571116582	0.8458234713049183	0.04699417870718391	-0.5966971355506387	0.8963600296981168	0.04693722994443055	-0.5901545520321486	1.1084598721233858	0.26936405501903854	0.9478358896580603	0.9439251472030249	0.3014400669723124	1.2013134666439178	0.8971194141057641	0.3053302831101467	1.0551400077502404	0.8419002137625006	0.4156142401818005	0.8297455983161419	1.0438664051342526	0.4439440510595695	0.5407177909899556	1.0231329052787648	0.391380283423992	0.3007082972655343	0.8856926232096797	0.30294355537169104	0.23108302365299171	0.767438491317728	0.302109642727879	0.19174149927142797	0.7904751310679099	0.3186735229676064	0.17536290350823575	0.8779863521830531	0.09983049558478876	0.8551136571483164	0.9167283092260332	0.028784439374769856	0.5541548938022506	0.892839046586136	0.16560811794458308	0.3248883387064213	0.7654079613505733	0.2573120015721595	0.2589592405927007	0.753992115018154	0.24777195698480414	0.20518511830788017	0.7606244927920127	0.1914125944112102	0.1791828388264481	0.8084319502666736	
